# xmcd
#
# Track frame offsets:
#	150
#	19472
#	40767
#	62182
#	89905
#	112192
#	132327
#	154072
#	172695
#	199145
#
# Disc length: 2930 seconds
#
# Revision: 1
# Processed by: cddbd v1.5.2PL0 Copyright (c) Steve Scherf et al.
# Submitted via: EZCDAudioConverter 8.0.2.1
#
DISCID=8d0b700a
DTITLE=Various Artist - Chúng Ta Đi mang Theo Quê Hương 1
DYEAR=1999
DGENRE=World Pop
TTITLE0=Hợp Ca Thúy Nga Paris - Việt Nam minh châu trời Đông
TTITLE1=Như Quỳnh, Mạnh Đình, Thế Sơn, Mỹ Huyền - Những nẻo đường Việt Nam
TTITLE2=Lưu Bích - Về mái nhà xưa
TTITLE3=Khánh Ly - Hướng về Hà Nội
TTITLE4=Nguyễn Hưng - Ôi quê nhà 1
TTITLE5=Như Quỳnh - Thươn về miền Trung
TTITLE6=Don Hồ - Đêm nhớ về Sài Gòn
TTITLE7=Ái Vân - Nhớ về hội Lim
TTITLE8=Thiên Kim - Nha Trang ngày về
TTITLE9=Elvis Phương - Rừng Lạng Sơn
EXTD=
EXTT0=
EXTT1=
EXTT2=
EXTT3=
EXTT4=
EXTT5=
EXTT6=
EXTT7=
EXTT8=
EXTT9=
PLAYORDER=
